grf
version=1
nRows=15
nColumns=37
inDegrees=no
endheader
time	ground_force_1_vx	ground_force_1_vy	ground_force_1_vz	ground_force_1_px	ground_force_1_py	ground_force_1_pz	ground_moment_1_mx	ground_moment_1_my	ground_moment_1_mz	ground_force_2_vx	ground_force_2_vy	ground_force_2_vz	ground_force_2_px	ground_force_2_py	ground_force_2_pz	ground_moment_2_mx	ground_moment_2_my	ground_moment_2_mz	ground_force_3_vx	ground_force_3_vy	ground_force_3_vz	ground_force_3_px	ground_force_3_py	ground_force_3_pz	ground_moment_3_mx	ground_moment_3_my	ground_moment_3_mz	ground_force_4_vx	ground_force_4_vy	ground_force_4_vz	ground_force_4_px	ground_force_4_py	ground_force_4_pz	ground_moment_4_mx	ground_moment_4_my	ground_moment_4_mz
      0.00000000	      0.00000000	     -0.00000000	      0.00000000	      0.00000000	      0.00000000	      0.00000000	      0.00000000	      0.00000000	      0.00000000	      6.87822819	     29.98342323	   -317.79138184	   -371.53305956	  -1064.70587786	      0.00000000	      0.00000000	     -0.00000000	    671.48276948	     17.29859818	    -55.79268416	   -472.19165039	   -396.69577124	   -692.90837929	      0.00000000	      0.00000000	     -0.00000000	  -2657.37447084	      0.00000000	     -0.00000000	      0.00000000	      0.00000000	      0.00000000	      0.00000000	      0.00000000	      0.00000000	      0.00000000
      0.01000000	      0.00000000	     -0.00000000	      0.00000000	      0.00000000	      0.00000000	      0.00000000	      0.00000000	      0.00000000	      0.00000000	      0.68714482	     34.00288010	   -317.72186279	   -362.77743526	  -1068.91035692	      0.00000000	      0.00000000	      0.00000000	    645.15939033	     18.05274499	    -53.08133855	   -468.24716187	   -391.19984470	   -690.66711078	      0.00000000	      0.00000000	     -0.00000000	  -2494.12050345	      0.00000000	     -0.00000000	      0.00000000	      0.00000000	      0.00000000	      0.00000000	      0.00000000	      0.00000000	      0.00000000
      0.02000000	      0.00000000	     -0.00000000	      0.00000000	      0.00000000	      0.00000000	      0.00000000	      0.00000000	      0.00000000	      0.00000000	     -4.05838585	     35.08967209	   -322.49353027	   -357.13228713	  -1074.45210717	      0.00000000	      0.00000000	      0.00000000	    432.13284805	     11.91444420	    -51.88857373	   -468.17776489	   -386.52112636	   -688.05208220	      0.00000000	      0.00000000	     -0.00000000	  -2494.90164214	      0.00000000	     -0.00000000	      0.00000000	      0.00000000	      0.00000000	      0.00000000	      0.00000000	      0.00000000	      0.00000000
      0.03000000	      0.00000000	     -0.00000000	      0.00000000	      0.00000000	      0.00000000	      0.00000000	      0.00000000	      0.00000000	      0.00000000	     -9.67827034	     36.74782562	   -325.84722900	   -354.16700342	  -1075.32192296	      0.00000000	      0.00000000	      0.00000000	    123.60225660	      9.07622377	    -50.04370578	   -463.35848999	   -382.56376800	   -686.63843161	      0.00000000	      0.00000000	     -0.00000000	  -2559.81977278	      0.00000000	     -0.00000000	      0.00000000	      0.00000000	      0.00000000	      0.00000000	      0.00000000	      0.00000000	      0.00000000
      0.04000000	      0.00000000	     -0.00000000	      0.00000000	      0.00000000	      0.00000000	      0.00000000	      0.00000000	      0.00000000	      0.00000000	    -12.94691086	     39.51932907	   -325.76882935	   -351.81873222	  -1074.80402618	      0.00000000	     -0.00000000	     -0.00000000	   -182.43179360	      5.97179228	    -48.37445502	   -463.57122803	   -378.60477456	   -685.12235264	      0.00000000	      0.00000000	     -0.00000000	  -2556.40873265	      0.00000000	     -0.00000000	      0.00000000	      0.00000000	      0.00000000	      0.00000000	      0.00000000	      0.00000000	      0.00000000
      0.05000000	      0.00000000	     -0.00000000	      0.00000000	      0.00000000	      0.00000000	      0.00000000	      0.00000000	      0.00000000	      0.00000000	    -11.48578644	     40.29551697	   -330.18927002	   -350.15856014	  -1077.86702351	      0.00000000	      0.00000000	     -0.00000000	   -293.60350776	      3.58560766	    -47.56837113	   -458.78521729	   -375.59608183	   -683.40952734	      0.00000000	      0.00000000	     -0.00000000	  -2617.61865782	      0.00000000	     -0.00000000	      0.00000000	      0.00000000	      0.00000000	      0.00000000	      0.00000000	      0.00000000	      0.00000000
      0.06000000	      0.00000000	     -0.00000000	      0.00000000	      0.00000000	      0.00000000	      0.00000000	      0.00000000	      0.00000000	      0.00000000	     -9.50298595	     39.59527206	   -334.74722290	   -349.64456094	  -1078.52070440	      0.00000000	      0.00000000	     -0.00000000	   -629.47642000	      1.68550078	    -47.32347122	   -451.38604736	   -372.92390531	   -682.05250441	      0.00000000	      0.00000000	     -0.00000000	  -2725.72502291	      0.00000000	     -0.00000000	      0.00000000	      0.00000000	      0.00000000	      0.00000000	      0.00000000	      0.00000000	      0.00000000
      0.07000000	      0.00000000	     -0.00000000	      0.00000000	      0.00000000	      0.00000000	      0.00000000	      0.00000000	      0.00000000	      0.00000000	     -8.18203545	     40.01955414	   -338.86672974	   -349.53007267	  -1079.38769073	      0.00000000	      0.00000000	     -0.00000000	   -230.47355552	      1.13633629	    -46.74741373	   -442.69097900	   -369.72478715	   -679.75076493	      0.00000000	     -0.00000000	     -0.00000000	  -2617.65919656	      0.00000000	     -0.00000000	      0.00000000	      0.00000000	      0.00000000	      0.00000000	      0.00000000	      0.00000000	      0.00000000
      0.08000000	      0.00000000	     -0.00000000	      0.00000000	      0.00000000	      0.00000000	      0.00000000	      0.00000000	      0.00000000	      0.00000000	     -7.07273579	     39.50701141	   -337.97131348	   -350.38459819	  -1077.45429397	      0.00000000	      0.00000000	     -0.00000000	   -184.40995092	      0.51551071	    -47.35710149	   -433.67926025	   -366.30815487	   -678.45611090	      0.00000000	      0.00000000	     -0.00000000	  -2563.25970232	      0.00000000	     -0.00000000	      0.00000000	      0.00000000	      0.00000000	      0.00000000	      0.00000000	      0.00000000	      0.00000000
      0.09000000	      0.00000000	     -0.00000000	      0.00000000	      0.00000000	      0.00000000	      0.00000000	      0.00000000	      0.00000000	      0.00000000	     -5.85467625	     38.77172852	   -340.11230469	   -349.96554447	  -1079.03303137	      0.00000000	      0.00000000	     -0.00000000	   -310.91529389	     -0.13027111	    -48.09394835	   -421.42602539	   -364.29959330	   -677.04410440	      0.00000000	     -0.00000000	     -0.00000000	  -2525.43173923	      0.00000000	     -0.00000000	      0.00000000	      0.00000000	      0.00000000	      0.00000000	      0.00000000	      0.00000000	      0.00000000
      0.10000000	      0.00000000	     -0.00000000	      0.00000000	      0.00000000	      0.00000000	      0.00000000	      0.00000000	      0.00000000	      0.00000000	     -4.16817236	     38.83615494	   -338.28112793	   -351.30496655	  -1080.37352821	      0.00000000	      0.00000000	     -0.00000000	   -248.72851368	     -1.25020290	    -47.79024876	   -410.63476562	   -361.19230967	   -675.61245630	      0.00000000	      0.00000000	     -0.00000000	  -2547.73788067	      0.00000000	     -0.00000000	      0.00000000	      0.00000000	      0.00000000	      0.00000000	      0.00000000	      0.00000000	      0.00000000
      0.11000000	      0.00000000	     -0.00000000	      0.00000000	      0.00000000	      0.00000000	      0.00000000	      0.00000000	      0.00000000	      0.00000000	     -1.97835612	     39.01464462	   -334.65295410	   -351.18562877	  -1078.18087367	      0.00000000	      0.00000000	     -0.00000000	   -384.66688026	     -1.42754942	    -46.98713672	   -399.39727783	   -358.94534257	   -673.38788599	      0.00000000	      0.00000000	     -0.00000000	  -2587.84755356	      0.00000000	     -0.00000000	      0.00000000	      0.00000000	      0.00000000	      0.00000000	      0.00000000	      0.00000000	      0.00000000
      0.12000000	      0.00000000	     -0.00000000	      0.00000000	      0.00000000	      0.00000000	      0.00000000	      0.00000000	      0.00000000	      0.00000000	     -0.60836852	     38.50433350	   -331.41107178	   -351.56447254	  -1080.37550745	      0.00000000	      0.00000000	     -0.00000000	   -396.67767026	     -1.57247050	    -45.79051576	   -388.51000977	   -358.43276127	   -672.96973669	      0.00000000	      0.00000000	     -0.00000000	  -2577.82601481	      0.00000000	     -0.00000000	      0.00000000	      0.00000000	      0.00000000	      0.00000000	      0.00000000	      0.00000000	      0.00000000
      0.13000000	      0.00000000	     -0.00000000	      0.00000000	      0.00000000	      0.00000000	      0.00000000	      0.00000000	      0.00000000	      0.00000000	      1.80833364	     38.22891235	   -326.98095703	   -353.06878596	  -1078.85994024	      0.00000000	      0.00000000	      0.00000000	     28.81363141	     -0.87906219	    -43.77549736	   -380.41683960	   -356.46698441	   -671.83675074	      0.00000000	      0.00000000	     -0.00000000	  -2442.30975104	      0.00000000	     -0.00000000	      0.00000000	      0.00000000	      0.00000000	      0.00000000	      0.00000000	      0.00000000	      0.00000000
      0.14000000	      0.00000000	     -0.00000000	      0.00000000	      0.00000000	      0.00000000	      0.00000000	      0.00000000	      0.00000000	      0.00000000	      3.30875468	     38.22102737	   -326.62838745	   -354.02285630	  -1081.59299209	      0.00000000	      0.00000000	     -0.00000000	   -174.26335282	      0.04784345	    -42.98090744	   -375.24383545	   -355.83019612	   -670.62549660	      0.00000000	      0.00000000	     -0.00000000	  -2461.40157322	      0.00000000	     -0.00000000	      0.00000000	      0.00000000	      0.00000000	      0.00000000	      0.00000000	      0.00000000	      0.00000000
